<svg width="127" height="100" viewBox="0 0 127 100" xmlns="http://www.w3.org/2000/svg"><title>arrow</title><path d="M124.104.134c-3.54-.751-4.47 2.556-4.627 3.3C102.308 84.44 44.215 85.863 16.103 84.58c3.086-3.13 4.55-8.919 4.613-9.522.096-.91.187-2.29-.575-2.655-1.139-.546-1.953.466-2.562 1.552-.697 1.243-3.138 7.172-14.585 11.35-1.709.622-2.93.764-2.992 1.574-.058.77 1.38 1.124 2.98 1.758 1.762.696 10.209 3.441 16.679 9.184.46.412 1.955 2.066 3.033 1.007.814-.804-.25-2.946-.502-3.491C20.086 90.998 16.696 89 16.696 89s3.81.482 11.003.597c34.77.212 85.59-11.77 98.953-84.847.25-1.363.08-4.06-2.548-4.616" fill="#90CAF9" fill-rule="evenodd"/></svg>