<?xml version="1.0" encoding="utf-8"?>
<!-- Generator: Adobe Illustrator 22.1.0, SVG Export Plug-In . SVG Version: 6.00 Build 0)  -->
<svg version="1.1" id="Layer_1" xmlns="http://www.w3.org/2000/svg" xmlns:xlink="http://www.w3.org/1999/xlink" x="0px" y="0px"
	 viewBox="0 0 200 240" style="enable-background:new 0 0 200 240;" xml:space="preserve">
<style type="text/css">
	.st0{fill:#FFFFFF;}
	.st1{fill:#FF4D4D;}
	.st2{fill:#DDE3E6;}
</style>
<g>
	<g>
		<g>
			<path class="st0" d="M196.2,0H3.8C1.7,0,0,1.7,0,3.8v232.5c0,2.1,1.7,3.8,3.8,3.8h192.4c2.1,0,3.8-1.7,3.8-3.8V3.8
				C200,1.7,198.3,0,196.2,0L196.2,0z"/>
		</g>
	</g>
	<g>
		<g>
			<g>
				<g>
					<path class="st1" d="M170,222.6c-0.2,0-0.5-0.1-0.7-0.3L164,217c-0.9-0.8-1.4-1.9-1.4-3.2c0-2.3,1.9-4.2,4.2-4.2
						c1.3,0,2.4,0.5,3.2,1.5c0.8-0.9,2-1.5,3.2-1.5c2.3,0,4.2,1.9,4.2,4.2c0,1.2-0.5,2.4-1.5,3.2l-5.3,5.3
						C170.5,222.5,170.3,222.6,170,222.6z M167.1,211c-1.7,0-3.1,1.4-3.1,3c0,0.9,0.4,1.7,1,2.3l5,4.9c0,0,0,0,0,0l4.9-4.9
						c0.7-0.6,1.1-1.4,1.1-2.3c0-1.7-1.4-3-3.1-3c-1.1,0-2,0.5-2.6,1.4L170,213l-0.3-0.6C169.1,211.5,168.1,211,167.1,211z"/>
				</g>
			</g>
		</g>
		<g>
			<g>
				<g>
					<path class="st2" d="M112.4,214.2H19c-1.7,0-3.1-1.4-3.1-3.1c0-1.7,1.4-3.1,3.1-3.1h93.3c1.7,0,3.1,1.4,3.1,3.1
						C115.4,212.8,114.1,214.2,112.4,214.2z"/>
				</g>
			</g>
			<g>
				<g>
					<path class="st2" d="M74.9,224.2H18.2c-1.2,0-2.2-1-2.2-2.2c0-1.2,1-2.2,2.2-2.2h56.8c1.2,0,2.2,1,2.2,2.2
						C77.1,223.2,76.2,224.2,74.9,224.2z"/>
				</g>
			</g>
		</g>
	</g>
	<g>
		<g>
			<path class="st2" d="M196.2,0.9c1.6,0,2.8,1.3,2.8,2.8v232.5c0,1.6-1.3,2.8-2.8,2.8H3.8c-1.6,0-2.8-1.3-2.8-2.8V3.8
				c0-1.6,1.3-2.8,2.8-2.8L196.2,0.9 M196.2,0H3.8C1.7,0,0,1.7,0,3.8v232.5c0,2.1,1.7,3.8,3.8,3.8h192.4c2.1,0,3.8-1.7,3.8-3.8V3.8
				C200,1.7,198.3,0,196.2,0L196.2,0z"/>
		</g>
	</g>
	<g>
		<rect x="0.9" y="191.4" class="st2" width="198.6" height="1.5"/>
	</g>
</g>
<g>
	<g>
		<path class="st2" d="M163.8,109.7H36.2c-1.9,0-3.4-1.5-3.4-3.4V29.7c0-1.9,1.5-3.4,3.4-3.4h127.5c1.9,0,3.4,1.5,3.4,3.4v76.6
			C167.1,108.2,165.6,109.7,163.8,109.7z M36.2,28.4c-0.8,0-1.4,0.6-1.4,1.4v76.6c0,0.7,0.6,1.4,1.4,1.4h127.5
			c0.8,0,1.4-0.6,1.4-1.4V29.7c0-0.7-0.6-1.4-1.4-1.4H36.2z"/>
	</g>
	<g>
		<rect x="33.9" y="164" class="st2" width="37.8" height="2.4"/>
	</g>
	<g>
		<path class="st2" d="M69.3,156.8H36.2c-1.9,0-3.4-1.5-3.4-3.4v-28.3c0-1.9,1.5-3.4,3.4-3.4h33.1c1.9,0,3.4,1.5,3.4,3.4v28.3
			C72.7,155.3,71.2,156.8,69.3,156.8z M36.2,123.8c-0.8,0-1.4,0.6-1.4,1.4v28.3c0,0.7,0.6,1.4,1.4,1.4h33.1c0.8,0,1.4-0.6,1.4-1.4
			v-28.3c0-0.7-0.6-1.4-1.4-1.4C69.3,123.8,36.2,123.8,36.2,123.8z"/>
	</g>
	<g>
		<rect x="80.4" y="164" class="st2" width="37.8" height="2.4"/>
	</g>
	<g>
		<path class="st2" d="M115.8,156.8H82.7c-1.9,0-3.4-1.5-3.4-3.4v-28.3c0-1.9,1.5-3.4,3.4-3.4h33.1c1.9,0,3.4,1.5,3.4,3.4v28.3
			C119.2,155.3,117.6,156.8,115.8,156.8z M82.7,123.8c-0.8,0-1.4,0.6-1.4,1.4v28.3c0,0.7,0.6,1.4,1.4,1.4h33.1
			c0.8,0,1.4-0.6,1.4-1.4v-28.3c0-0.7-0.6-1.4-1.4-1.4C115.8,123.8,82.7,123.8,82.7,123.8z"/>
	</g>
	<g>
		<rect x="126.7" y="164" class="st2" width="37.8" height="2.4"/>
	</g>
	<g>
		<path class="st2" d="M162.1,156.8H129c-1.9,0-3.4-1.5-3.4-3.4v-28.3c0-1.9,1.5-3.4,3.4-3.4h33.1c1.9,0,3.4,1.5,3.4,3.4v28.3
			C165.4,155.3,163.9,156.8,162.1,156.8z M129,123.8c-0.8,0-1.4,0.6-1.4,1.4v28.3c0,0.7,0.6,1.4,1.4,1.4h33.1c0.8,0,1.4-0.6,1.4-1.4
			v-28.3c0-0.7-0.6-1.4-1.4-1.4C162.1,123.8,129,123.8,129,123.8z"/>
	</g>
</g>
</svg>
