<svg width="300" height="105" viewBox="0 0 300 105" xmlns="http://www.w3.org/2000/svg"><title>Group 2</title><g fill="none" fill-rule="evenodd"><path fill="#FFF" d="M0 0h300v105H0z"/><path fill="#DDE3E6" d="M28 82.438L23.056 85 24 79.573l-4-3.844 5.528-.791L28 70l2.472 4.938 5.528.791-4 3.844.944 5.427zm38 0L61.056 85 62 79.573l-4-3.844 5.528-.791L66 70l2.472 4.938 5.528.791-4 3.844.944 5.427zm19 0L80.056 85 81 79.573l-4-3.844 5.528-.791L85 70l2.472 4.938 5.528.791-4 3.844.944 5.427zm19 0L99.056 85l.944-5.427-4-3.844 5.528-.791L104 70l2.472 4.938 5.528.791-4 3.844.944 5.427zm-57 0L42.056 85 43 79.573l-4-3.844 5.528-.791L47 70l2.472 4.938 5.528.791-4 3.844.944 5.427z"/><path d="M270 22.829c-2.355-4.707-10-3.36-10 2.7 0 6.007 8.254 9.035 10 12.648 1.747-3.612 10-6.641 10-12.647 0-6.054-7.642-7.413-10-2.701z" fill="#D84315"/><rect fill="#DDE3E6" x="60" y="20" width="150" height="14" rx="3"/><rect fill="#DDE3E6" x="250" y="71" width="30" height="14" rx="3"/><rect fill="#DDE3E6" x="60" y="44" width="90" height="6" rx="3"/><rect fill="#DDE3E6" x="20" y="20" width="30" height="30" rx="3"/></g></svg>